Coordinates
version=1
nRows=34
nColumns=38
inDegrees=no

Units are S.I. units (second, meters, Newtons, ...)
If the header above contains a line with 'inDegrees', this indicates whether rotational values are in degrees (yes) or radians (no).

endheader
time	pelvis_tilt	pelvis_list	pelvis_rotation	pelvis_tx	pelvis_ty	pelvis_tz	hip_flexion_r	hip_adduction_r	hip_rotation_r	knee_angle_r	ankle_angle_r	subtalar_angle_r	mtp_angle_r	hip_flexion_l	hip_adduction_l	hip_rotation_l	knee_angle_l	ankle_angle_l	subtalar_angle_l	mtp_angle_l	lumbar_extension	lumbar_bending	lumbar_rotation	arm_flex_r	arm_add_r	arm_rot_r	elbow_flex_r	pro_sup_r	wrist_flex_r	wrist_dev_r	arm_flex_l	arm_add_l	arm_rot_l	elbow_flex_l	pro_sup_l	wrist_flex_l	wrist_dev_l
1.67	0.379437	1.49277	-1.97862	1.02524	-0.0359576	0.914107	-0.306771	0.00176171	-0.23257	0.143449	0.316122	0	0	0.321348	-0.0226963	-0.215871	0	0.0940619	0	0	-0.209236	-0.0711091	-0.0951179	-0.22835	-0.228852	0.0946233	0.818321	0.359841	0	0	-0.207543	-0.274453	0.241646	0.627229	1.32332	0	0
1.68	0.388398	1.4921	-1.99042	1.02584	-0.0476649	0.911838	-0.312679	-0.00350943	-0.23873	0.16116	0.32739	0	0	0.322009	-0.0195945	-0.210949	0	0.0974836	0	0	-0.208556	-0.0746255	-0.0911873	-0.229366	-0.227696	0.0903841	0.818298	0.360747	0	0	-0.206739	-0.275703	0.244411	0.622735	1.32938	0	0
1.69	0.403637	1.49147	-2.01086	1.02635	-0.060057	0.909773	-0.318584	-0.0114301	-0.245793	0.179274	0.33813	0	0	0.313551	-0.0149267	-0.204222	0	0.0992067	0	0	-0.206494	-0.0787819	-0.08564	-0.230985	-0.226436	0.0859869	0.817448	0.361925	0	0	-0.207008	-0.276698	0.245199	0.618773	1.33675	0	0
1.7	0.415743	1.48781	-2.0266	1.0269	-0.0721103	0.90811	-0.326697	-0.0193437	-0.250807	0.198742	0.3459	0	0	0.317022	-0.0124818	-0.204477	0.0132949	0.103169	0	0	-0.208297	-0.0843698	-0.0807276	-0.232444	-0.224443	0.081342	0.815994	0.363395	0	0	-0.206191	-0.278372	0.244121	0.615532	1.34709	0	0
1.71	0.429434	1.48741	-2.0429	1.02749	-0.084304	0.906241	-0.33132	-0.0257166	-0.255359	0.219058	0.352352	0	0	0.336955	-0.0153471	-0.229281	0.0766542	0.122088	0	0	-0.206432	-0.0886344	-0.0764201	-0.234267	-0.222064	0.0762775	0.813062	0.367739	0	0	-0.205828	-0.279044	0.236097	0.611521	1.37476	0	0
1.72	0.431519	1.48713	-2.04833	1.0281	-0.0969096	0.904505	-0.337147	-0.0312606	-0.256143	0.237782	0.355049	0	0	0.35417	-0.0199516	-0.249459	0.139987	0.139674	0	0	-0.203884	-0.0918593	-0.0708931	-0.237155	-0.220732	0.0729847	0.810353	0.369573	0	0	-0.205934	-0.280222	0.231303	0.608666	1.38929	0	0
1.73	0.438413	1.48626	-2.05909	1.02883	-0.109937	0.902964	-0.342876	-0.0383738	-0.257363	0.25779	0.35565	0	0	0.365953	-0.0230777	-0.263666	0.193297	0.151731	0	0	-0.200651	-0.0956606	-0.0646903	-0.240998	-0.21924	0.0686368	0.807146	0.371098	0	0	-0.206929	-0.281397	0.226621	0.606348	1.40094	0	0
1.74	0.463978	1.4845	-2.08867	1.02977	-0.123178	0.90174	-0.347542	-0.0484231	-0.259061	0.280204	0.35397	0	0	0.370998	-0.0218527	-0.270978	0.227528	0.147038	0	0	-0.196884	-0.101304	-0.0585565	-0.244461	-0.217624	0.0647046	0.802256	0.372629	0	0	-0.20816	-0.282569	0.221657	0.604246	1.41048	0	0
1.75	0.510457	1.48177	-2.13819	1.03102	-0.136477	0.900906	-0.350642	-0.0612268	-0.261291	0.305295	0.349471	0	0	0.371341	-0.0167023	-0.27477	0.246757	0.123666	0	0	-0.193007	-0.109043	-0.0537634	-0.246803	-0.215753	0.0620593	0.795223	0.373523	0	0	-0.20933	-0.284127	0.216947	0.602932	1.41575	0	0
1.76	0.568773	1.47841	-2.19822	1.03257	-0.149767	0.900451	-0.351011	-0.0759067	-0.264634	0.33461	0.341644	0	0	0.371624	-0.0110876	-0.281436	0.266503	0.0983661	0	0	-0.188934	-0.118037	-0.0506101	-0.247798	-0.213556	0.0604742	0.785341	0.375269	0	0	-0.21015	-0.285805	0.211524	0.601427	1.42145	0	0
1.77	0.628722	1.47489	-2.25886	1.03428	-0.163123	0.900312	-0.347949	-0.0914712	-0.269803	0.369087	0.329758	0	0	0.375107	-0.00775246	-0.293931	0.297633	0.0870075	0	0	-0.184281	-0.127291	-0.0486229	-0.248097	-0.210992	0.0595891	0.773384	0.379864	0	0	-0.210994	-0.287575	0.205246	0.599837	1.42744	0	0
1.78	0.672525	1.47132	-2.30285	1.03605	-0.17653	0.900591	-0.342524	-0.106181	-0.273136	0.407888	0.311731	0	0	0.379958	-0.00721852	-0.306037	0.336945	0.0878748	0	0	-0.180242	-0.135202	-0.0469339	-0.248201	-0.208658	0.059745	0.762318	0.382131	0	0	-0.211724	-0.28996	0.200791	0.599179	1.42906	0	0
1.79	0.70487	1.46756	-2.3341	1.03788	-0.190079	0.901354	-0.334709	-0.120386	-0.275618	0.45102	0.284063	0	0	0.384013	-0.00726113	-0.313647	0.378007	0.0932826	0	0	-0.176727	-0.142222	-0.0466116	-0.248067	-0.206544	0.0624929	0.751104	0.380714	0	0	-0.212907	-0.293215	0.197496	0.60015	1.427	0	0
1.8	0.731719	1.4633	-2.35828	1.03997	-0.203573	0.902641	-0.323117	-0.135205	-0.277806	0.500178	0.248553	0	0	0.384171	-0.00488753	-0.315707	0.412656	0.099015	0	0	-0.174237	-0.148772	-0.0479285	-0.247701	-0.204792	0.0675025	0.739753	0.377415	0	0	-0.21367	-0.296949	0.19524	0.602059	1.42213	0	0
1.81	0.767607	1.45917	-2.38949	1.04243	-0.2169	0.904253	-0.305566	-0.151424	-0.279317	0.555726	0.204047	0	0	0.380263	0.00170538	-0.31409	0.435685	0.104103	0	0	-0.171335	-0.155382	-0.0517417	-0.246936	-0.203402	0.0747946	0.727941	0.373248	0	0	-0.214404	-0.300989	0.193053	0.605563	1.41471	0	0
1.82	0.817972	1.45577	-2.43313	1.0452	-0.23009	0.90589	-0.281917	-0.16878	-0.28013	0.615552	0.15122	0	0	0.373547	0.0121593	-0.310696	0.447337	0.108316	0	0	-0.166416	-0.162026	-0.0572403	-0.247175	-0.202192	0.082514	0.717077	0.369262	0	0	-0.214831	-0.305953	0.192592	0.610521	1.40723	0	0
1.83	0.880907	1.45389	-2.48816	1.04814	-0.243105	0.907334	-0.252405	-0.186084	-0.279032	0.677723	0.0887724	0	0	0.365781	0.0244274	-0.307623	0.450924	0.111472	0	0	-0.15895	-0.167882	-0.063607	-0.248353	-0.201469	0.0911458	0.707242	0.364701	0	0	-0.21543	-0.311793	0.193663	0.617603	1.39891	0	0
1.84	0.950865	1.45306	-2.54986	1.05122	-0.255929	0.908599	-0.218541	-0.202732	-0.274966	0.74062	0.0196245	0	0	0.356495	0.0379412	-0.303971	0.447371	0.113888	0	0	-0.149948	-0.172477	-0.0703803	-0.250575	-0.20179	0.1004	0.699857	0.359226	0	0	-0.216169	-0.318139	0.195931	0.62693	1.38858	0	0
1.85	1.02034	1.4523	-2.61139	1.05433	-0.268571	0.909798	-0.182471	-0.218275	-0.267716	0.802733	-0.0501911	0	0	0.345014	0.0519973	-0.29972	0.438611	0.116865	0	0	-0.140593	-0.176114	-0.0770271	-0.253839	-0.202693	0.108311	0.695515	0.353625	0	0	-0.216778	-0.324878	0.199067	0.637843	1.37626	0	0
1.86	1.08096	1.45088	-2.66454	1.05729	-0.28093	0.911038	-0.145868	-0.232398	-0.258387	0.863466	-0.116037	0	0	0.331167	0.0658691	-0.294526	0.426906	0.119998	0	0	-0.132593	-0.179357	-0.0838764	-0.257037	-0.203595	0.114352	0.693475	0.349204	0	0	-0.217528	-0.332496	0.201536	0.651392	1.36289	0	0
1.87	1.12411	1.44822	-2.70114	1.06001	-0.293011	0.912423	-0.110509	-0.245407	-0.247799	0.921035	-0.17708	0	0	0.31518	0.0790869	-0.287645	0.415307	0.123176	0	0	-0.127141	-0.182572	-0.0898628	-0.260137	-0.204224	0.118114	0.693159	0.345564	0	0	-0.216939	-0.341433	0.206218	0.666353	1.34606	0	0
1.88	1.1416	1.44539	-2.71312	1.0624	-0.304768	0.914054	-0.0780645	-0.25572	-0.236717	0.973073	-0.225919	0	0	0.297403	0.0896225	-0.280145	0.405937	0.127092	0	0	-0.125317	-0.184539	-0.0953687	-0.262401	-0.204556	0.1192	0.694399	0.343667	0	0	-0.214701	-0.351077	0.211982	0.681155	1.33071	0	0
1.89	1.12392	1.44472	-2.69008	1.06576	-0.316255	0.916033	-0.0514019	-0.275001	-0.225256	1.01441	-0.243913	0	0	0.277795	0.0977929	-0.270304	0.399039	0.130106	0	0	-0.127743	-0.180559	-0.101396	-0.263674	-0.206465	0.117704	0.696454	0.34326	0	0	-0.211347	-0.358733	0.21589	0.696593	1.31723	0	0
1.9	1.08624	1.44231	-2.64769	1.06778	-0.327378	0.918378	-0.027621	-0.279734	-0.215456	1.05452	-0.243245	0	0	0.254329	0.102744	-0.26218	0.390618	0.133288	0	0	-0.134646	-0.178583	-0.107802	-0.263468	-0.206388	0.113699	0.699206	0.346727	0	0	-0.20719	-0.368841	0.221486	0.712835	1.29135	0	0
1.91	1.03935	1.44157	-2.59598	1.06962	-0.338288	0.920829	-0.00359948	-0.280656	-0.206648	1.09372	-0.217884	0	0	0.231318	0.104107	-0.255486	0.383783	0.137563	0	0	-0.142079	-0.174084	-0.114938	-0.262307	-0.206348	0.109257	0.701087	0.352865	0	0	-0.201335	-0.376399	0.21977	0.723755	1.28396	0	0
1.92	0.986465	1.44123	-2.53855	1.07131	-0.349053	0.923359	0.0199606	-0.279503	-0.199003	1.12909	-0.180717	0	0	0.207108	0.103901	-0.249859	0.375429	0.142026	0	0	-0.149796	-0.168398	-0.122162	-0.260779	-0.206512	0.105274	0.70231	0.359555	0	0	-0.19442	-0.383194	0.21694	0.732072	1.28353	0	0
1.93	0.93439	1.44111	-2.48218	1.07297	-0.359663	0.925872	0.0430871	-0.277074	-0.192479	1.15752	-0.144382	0	0	0.181933	0.103249	-0.245028	0.364189	0.146019	0	0	-0.15706	-0.162059	-0.129225	-0.259294	-0.206919	0.102097	0.702955	0.366263	0	0	-0.186526	-0.389274	0.214139	0.738063	1.2852	0	0
1.94	0.885649	1.44159	-2.42894	1.07463	-0.370125	0.928283	0.0660939	-0.273416	-0.186701	1.17839	-0.115512	0	0	0.156945	0.102267	-0.240392	0.350815	0.149348	0	0	-0.163381	-0.155075	-0.136475	-0.257824	-0.207329	0.0992813	0.702965	0.372895	0	0	-0.178124	-0.394571	0.209996	0.742591	1.29007	0	0
1.95	0.839033	1.44278	-2.37766	1.07629	-0.38047	0.930587	0.0890806	-0.268932	-0.182496	1.19317	-0.0917016	0	0	0.132241	0.100892	-0.235232	0.335415	0.151779	0	0	-0.168486	-0.147402	-0.143647	-0.256676	-0.207947	0.0975248	0.702689	0.376527	0	0	-0.169013	-0.399384	0.206062	0.745614	1.29636	0	0
1.96	0.793797	1.44461	-2.32788	1.07792	-0.390706	0.932766	0.112116	-0.263903	-0.180206	1.20311	-0.068283	0	0	0.108409	0.0989022	-0.229803	0.319273	0.153656	0	0	-0.172496	-0.139269	-0.150795	-0.255981	-0.209056	0.0976306	0.70257	0.377592	0	0	-0.15971	-0.403971	0.202462	0.747729	1.30116	0	0
1.97	0.750611	1.4468	-2.27978	1.07956	-0.400903	0.934794	0.134545	-0.258916	-0.180254	1.20811	-0.0443466	0	0	0.0853	0.0967329	-0.223127	0.302442	0.154931	0	0	-0.1754	-0.130989	-0.158255	-0.256051	-0.210577	0.0990924	0.702909	0.378284	0	0	-0.150293	-0.408395	0.199308	0.749067	1.30485	0	0
1.98	0.70904	1.4492	-2.23365	1.08109	-0.410862	0.936663	0.157157	-0.253783	-0.180837	1.20827	-0.0220655	0	0	0.063191	0.0942862	-0.215435	0.28529	0.155591	0	0	-0.177985	-0.122759	-0.165425	-0.255877	-0.212053	0.101445	0.703542	0.378084	0	0	-0.140215	-0.412802	0.196083	0.750022	1.30912	0	0
1.99	0.66477	1.45146	-2.18523	1.08248	-0.420762	0.938428	0.178685	-0.248262	-0.182157	1.2032	-0.00262515	0	0	0.0410843	0.0913886	-0.206961	0.267909	0.155993	0	0	-0.180489	-0.114457	-0.172213	-0.255813	-0.213322	0.104257	0.704374	0.377478	0	0	-0.13021	-0.416851	0.191726	0.750917	1.31289	0	0
2	0.619254	1.45326	-2.1352	1.08381	-0.430636	0.940083	0.198523	-0.242962	-0.185058	1.19329	0.0142841	0	0	0.0187222	0.088404	-0.19803	0.250208	0.156042	0	0	-0.183046	-0.106307	-0.178912	-0.256222	-0.21406	0.106344	0.705376	0.377557	0	0	-0.119826	-0.421202	0.188414	0.751733	1.31518	0	0
